<svg width="15" height="16" viewBox="0 0 15 16" fill="none" xmlns="http://www.w3.org/2000/svg">
<path d="M0.575012 2.675L3.50001 5.675V13.25C3.50001 13.625 3.65001 14 3.95001 14.3C4.25001 14.6 4.62501 14.75 5.00001 14.75V7.1L5.75001 7.85V14.75H8.90001C8.82501 14.45 8.75001 14.15 8.75001 14C8.75001 13.1 9.12501 12.5 9.95001 12.05L10.55 12.65C9.87501 12.875 9.57501 13.4 9.57501 14.075C9.57501 14.45 9.72501 14.825 10.025 15.125C10.25 15.35 10.625 15.5 11 15.5C11.675 15.5 12.2 15.2 12.425 14.525L13.325 15.425L14.375 14.375L1.62501 1.625L0.575012 2.675ZM8.00001 0.5C8.00001 0.875 8.15001 1.25 8.45001 1.55C8.75001 1.85 9.12501 2 9.50001 2V4.25H6.35001L11 8.9V0.5H8.00001Z" fill="white"/>
</svg>
