<svg width="18" height="18" viewBox="0 0 18 18" fill="none" xmlns="http://www.w3.org/2000/svg">
<path d="M17.7596 14.7311L10.298 7.28843C11.0623 5.37251 10.6843 3.1127 9.11471 1.55703C7.22466 -0.326141 4.28275 -0.498083 2.18726 1.02483L5.34282 4.1771L4.17592 5.31519L1.02857 2.19567C-0.499902 4.27535 -0.327332 7.21474 1.56272 9.08973C3.0912 10.6126 5.31817 11.0138 7.22466 10.3015L14.7109 17.7605C15.0314 18.0798 15.5491 18.0798 15.8696 17.7605L17.7596 15.8773C18.0801 15.5498 18.0801 15.0504 17.7596 14.7311ZM15.2944 16.0329L7.52049 8.28733C7.01921 8.65578 6.46042 8.87684 5.87697 8.95872C4.75937 9.12248 3.58425 8.78678 2.72962 7.93526C1.94895 7.16561 1.58737 6.13396 1.6449 5.11869L4.18414 7.64869L7.66841 4.1771L5.12916 1.63072C6.16458 1.58978 7.17535 1.95004 7.95602 2.71969C8.37635 3.13776 8.68863 3.65116 8.86611 4.21587C9.04358 4.78058 9.08095 5.37976 8.97501 5.96202C8.87242 6.54878 8.62379 7.10054 8.25186 7.56681L16.0257 15.3042L15.2944 16.0329Z" fill="black"/>
</svg>
