<svg width="18" height="19" viewBox="0 0 18 19" fill="none" xmlns="http://www.w3.org/2000/svg">
<path d="M11 6.3075H7C6.45 6.3075 6 6.78056 6 7.35875V11.5637C6 12.1419 6.45 12.615 7 12.615H11C11.55 12.615 12 12.1419 12 11.5637V7.35875C12 6.78056 11.55 6.3075 11 6.3075ZM10 10.5125H8V8.41H10V10.5125ZM18 7.35875C18 6.78056 17.55 6.3075 17 6.3075H16V4.205C16 3.04862 15.1 2.1025 14 2.1025H12V1.05125C12 0.473062 11.55 0 11 0C10.45 0 10 0.473062 10 1.05125V2.1025H8V1.05125C8 0.473062 7.55 0 7 0C6.45 0 6 0.473062 6 1.05125V2.1025H4C2.9 2.1025 2 3.04862 2 4.205V6.3075H1C0.45 6.3075 0 6.78056 0 7.35875C0 7.93694 0.45 8.41 1 8.41H2V10.5125H1C0.45 10.5125 0 10.9856 0 11.5637C0 12.1419 0.45 12.615 1 12.615H2V14.7175C2 15.8739 2.9 16.82 4 16.82H6V17.8712C6 18.4494 6.45 18.9225 7 18.9225C7.55 18.9225 8 18.4494 8 17.8712V16.82H10V17.8712C10 18.4494 10.45 18.9225 11 18.9225C11.55 18.9225 12 18.4494 12 17.8712V16.82H14C15.1 16.82 16 15.8739 16 14.7175V12.615H17C17.55 12.615 18 12.1419 18 11.5637C18 10.9856 17.55 10.5125 17 10.5125H16V8.41H17C17.55 8.41 18 7.93694 18 7.35875ZM13 14.7175H5C4.45 14.7175 4 14.2444 4 13.6662V5.25625C4 4.67806 4.45 4.205 5 4.205H13C13.55 4.205 14 4.67806 14 5.25625V13.6662C14 14.2444 13.55 14.7175 13 14.7175Z" fill="black"/>
</svg>
