<svg width="18" height="19" viewBox="0 0 18 19" fill="none" xmlns="http://www.w3.org/2000/svg">
<path d="M17.9222 7.09701C17.8279 6.78205 17.6508 6.50423 17.4127 6.29808C17.1747 6.09193 16.8863 5.96654 16.5835 5.93749L12.1622 5.52084L10.4325 1.02981C10.3135 0.724396 10.1147 0.463895 9.86076 0.280771C9.60683 0.0976472 9.30905 0 9.00454 0C8.70003 0 8.40225 0.0976472 8.14833 0.280771C7.8944 0.463895 7.69555 0.724396 7.57656 1.02981L5.84453 5.52084L1.4233 5.93749C1.11877 5.96496 0.828464 6.08982 0.588817 6.29639C0.34917 6.50296 0.170852 6.78204 0.0762366 7.09863C-0.0183784 7.41521 -0.0250759 7.75519 0.0569846 8.0759C0.139045 8.39661 0.306208 8.68378 0.5375 8.90136L3.89763 12.096L2.88928 16.849C2.82013 17.1726 2.84007 17.5113 2.94661 17.8227C3.05315 18.1341 3.24157 18.4043 3.4883 18.5996C3.73504 18.795 4.02914 18.9067 4.33385 18.921C4.63856 18.9352 4.94036 18.8512 5.20151 18.6795L9.00222 16.1644L12.8029 18.6795C13.0641 18.8509 13.3658 18.9347 13.6703 18.9203C13.9749 18.906 14.2688 18.7942 14.5154 18.5989C14.762 18.4036 14.9503 18.1335 15.0569 17.8223C15.1634 17.511 15.1834 17.1725 15.1144 16.849L14.106 12.096L17.4662 8.90136C17.6968 8.68299 17.8632 8.39524 17.9443 8.07424C18.0255 7.75324 18.0178 7.41327 17.9222 7.09701ZM12.7447 10.699C12.532 10.9006 12.3738 11.1616 12.287 11.4539C12.2002 11.7462 12.1882 12.0588 12.2522 12.358L13.1357 16.5261L9.80502 14.322C9.56314 14.1616 9.28541 14.0767 9.00222 14.0767C8.71902 14.0767 8.44129 14.1616 8.19941 14.322L4.86875 16.5261L5.75222 12.358C5.81625 12.0588 5.80422 11.7462 5.71744 11.4539C5.63066 11.1616 5.4724 10.9006 5.25968 10.699L2.30522 7.89059L6.19435 7.5238C6.47597 7.49752 6.74559 7.38758 6.97385 7.20593C7.20211 7.02429 7.38026 6.7779 7.48891 6.49358L9.00222 2.56456L10.5155 6.49358C10.6242 6.7779 10.8023 7.02429 11.0306 7.20593C11.2588 7.38758 11.5285 7.49752 11.8101 7.5238L15.6992 7.89059L12.7447 10.699Z" fill="black"/>
</svg>
