<svg width="28" height="37" viewBox="0 0 28 37" fill="none" xmlns="http://www.w3.org/2000/svg">
<path d="M1.57227 5.6626L1.65771 3.4751C1.65771 2.22184 1.41276 1.35596 0.922852 0.877441L1.26465 0.535645C1.72038 0.97998 2.28434 1.20215 2.95654 1.20215H25.3955C26.0905 1.20215 26.6602 0.97998 27.1045 0.535645L27.4463 0.877441C27.0133 1.31038 26.7969 1.88005 26.7969 2.58643L26.7114 4.77393C26.7114 6.00439 26.9564 6.86458 27.4463 7.35449L27.1045 7.71338C26.5918 7.18929 25.7601 6.92725 24.6094 6.92725L20.8325 7.1665C19.6362 7.1665 18.776 6.90446 18.252 6.38037L17.8931 6.72217C18.3374 7.15511 18.5596 7.72477 18.5596 8.43115V22.6157C18.5596 23.8006 18.6621 25.5666 18.8672 27.9136C19.0837 30.2606 19.1919 31.8044 19.1919 32.5449C19.1919 33.8438 18.9583 34.4932 18.4912 34.4932C18.0241 34.4932 17.7905 34.0317 17.7905 33.1089C17.7905 32.186 17.8646 30.9328 18.0127 29.3491C18.1722 27.7769 18.252 26.592 18.252 25.7944C18.252 24.5526 18.007 23.9316 17.5171 23.9316C17.2778 23.9316 17.0898 24.0741 16.9531 24.3589C16.8164 24.6437 16.748 24.9229 16.748 25.1963L17.1411 28.7681C17.1411 29.5884 16.9076 29.9985 16.4404 29.9985C16.2012 29.9985 16.0246 29.8789 15.9106 29.6396C15.7967 29.4004 15.7397 29.1213 15.7397 28.8022C15.7397 28.4832 15.8423 27.9591 16.0474 27.23C16.2524 26.5122 16.355 25.9255 16.355 25.4697C16.355 25.014 16.1556 24.6665 15.7568 24.4272C15.3695 24.188 14.8739 24.0684 14.27 24.0684C13.6776 24.0684 13.0566 24.188 12.4072 24.4272C11.7692 24.6665 11.2052 25.0368 10.7153 25.5381C10.2254 26.0508 9.98047 26.5521 9.98047 27.042C9.98047 27.5433 10.0545 28.1471 10.2026 28.8535C10.3621 29.5599 10.4419 30.1466 10.4419 30.6138C10.4419 31.0923 10.2311 31.3315 9.80957 31.3315C9.33105 31.3315 9.0918 31.0752 9.0918 30.5625C9.0918 30.0612 9.18294 29.4232 9.36523 28.6484C9.54753 27.8737 9.63867 27.2926 9.63867 26.9053V22.4619C9.66146 16.2184 9.67285 11.5415 9.67285 8.43115C9.67285 7.71338 9.88932 7.14372 10.3223 6.72217L9.98047 6.38037C9.47917 6.89307 8.64746 7.14941 7.48535 7.14941L3.81104 6.92725C2.63753 6.92725 1.78874 7.18929 1.26465 7.71338L0.922852 7.35449C1.35579 6.92155 1.57227 6.35758 1.57227 5.6626ZM16.3037 32.5791C16.5771 33.8324 16.7139 34.9204 16.7139 35.8433C16.7139 36.242 16.5715 36.4414 16.2866 36.4414C16.0018 36.4414 15.8594 36.2591 15.8594 35.8945C15.8594 34.8691 16.0075 33.764 16.3037 32.5791Z" fill="#FFF500"/>
</svg>
