<svg width="18" height="18" viewBox="0 0 18 18" fill="none" xmlns="http://www.w3.org/2000/svg">
<path d="M9 18C7.81778 18.0028 6.64666 17.7965 5.55437 17.393C4.46207 16.9896 3.47027 16.397 2.63631 15.6495C0.937384 14.1327 0 12.1169 0 9.97144C0 7.82597 0.937384 5.81019 2.63631 4.29341C2.76486 4.17873 2.91748 4.08777 3.08544 4.0257C3.25341 3.96364 3.43343 3.9317 3.61523 3.9317C3.79703 3.9317 3.97706 3.96364 4.14502 4.0257C4.31298 4.08777 4.4656 4.17873 4.59415 4.29341C4.72271 4.40809 4.82468 4.54423 4.89426 4.69407C4.96383 4.8439 4.99964 5.00449 4.99964 5.16667C4.99964 5.32885 4.96383 5.48944 4.89426 5.63927C4.82468 5.78911 4.72271 5.92525 4.59415 6.03993C3.41723 7.09105 2.76923 8.48678 2.76923 9.97144C2.76923 11.4561 3.41723 12.8531 4.59415 13.9029C5.77108 14.9528 7.33431 15.5297 9 15.5297C10.6657 15.5297 12.2289 14.9516 13.4058 13.9029C14.5842 12.8531 15.2308 11.4573 15.2308 9.97144C15.2308 8.48554 14.5828 7.08981 13.4058 6.03993C13.2773 5.92525 13.1753 5.78911 13.1057 5.63927C13.0362 5.48944 13.0004 5.32885 13.0004 5.16667C13.0004 5.00449 13.0362 4.8439 13.1057 4.69407C13.1753 4.54423 13.2773 4.40809 13.4058 4.29341C13.5344 4.17873 13.687 4.08777 13.855 4.0257C14.0229 3.96364 14.203 3.9317 14.3848 3.9317C14.5666 3.9317 14.7466 3.96364 14.9146 4.0257C15.0825 4.08777 15.2351 4.17873 15.3637 4.29341C17.0626 5.81142 18 7.8272 18 9.97144C18 12.1157 17.0626 14.1327 15.3637 15.6495C14.5297 16.397 13.5379 16.9896 12.4456 17.393C11.3533 17.7965 10.1822 18.0028 9 18ZM9 8.64611C8.63278 8.64611 8.2806 8.51598 8.02093 8.28434C7.76126 8.05271 7.61539 7.73854 7.61539 7.41095V1.23516C7.61539 0.907574 7.76126 0.593407 8.02093 0.36177C8.2806 0.130133 8.63278 0 9 0C9.36722 0 9.71941 0.130133 9.97907 0.36177C10.2387 0.593407 10.3846 0.907574 10.3846 1.23516V7.41095C10.3846 7.73854 10.2387 8.05271 9.97907 8.28434C9.71941 8.51598 9.36722 8.64611 9 8.64611Z" fill="white"/>
</svg>
