<svg width="20" height="20" viewBox="0 0 20 20" fill="none" xmlns="http://www.w3.org/2000/svg">
<path d="M4.59998 7.6319H8.19998" stroke="black" stroke-width="1.5" stroke-linecap="round" stroke-linejoin="round"/>
<path d="M18.9982 10.0002C18.9982 9.92729 19 9.4953 18.9982 9.46499C18.9658 8.99037 18.5797 8.61238 18.0937 8.58112C18.0622 8.57922 18.0253 8.57922 17.9497 8.57922H15.6079C14.0014 8.57922 12.7 9.8515 12.7 11.4213C12.7 12.991 14.0023 14.2633 15.607 14.2633H17.9497C18.0253 14.2633 18.0622 14.2633 18.0937 14.2614C18.5797 14.2301 18.9667 13.8521 18.9982 13.3775C19 13.3472 19 12.9152 19 12.8423" stroke="black" stroke-width="1.5" stroke-linecap="round"/>
<path d="M15.4 12.3686C15.8971 12.3686 16.3 11.9445 16.3 11.4213C16.3 10.8981 15.8971 10.4739 15.4 10.4739C14.9029 10.4739 14.5 10.8981 14.5 11.4213C14.5 11.9445 14.9029 12.3686 15.4 12.3686Z" fill="black"/>
<path d="M8.2 19H10.9C14.2939 19 15.9913 19 17.0452 17.8897C17.7733 17.1243 17.9992 16.0367 18.0685 14.2633M18.0685 8.57924C17.9983 6.80581 17.7733 5.71826 17.0452 4.95281C15.9913 3.84252 14.2939 3.84252 10.9 3.84252H8.2C4.8061 3.84252 3.1087 3.84252 2.0548 4.95281C1 6.06215 1 7.84883 1 11.4213C1 14.9937 1 16.7804 2.0548 17.8897C2.6425 18.5093 3.43 18.7831 4.6 18.9034M4.6 3.84252L7.9615 1.49596C8.43424 1.17229 8.98606 1 9.55 1C10.1139 1 10.6658 1.17229 11.1385 1.49596L14.5 3.84252" stroke="black" stroke-width="1.5" stroke-linecap="round"/>
</svg>
